<svg width="500" height="500" viewBox="0 0 500 500" fill="none" xmlns="http://www.w3.org/2000/svg">
<g clip-path="url(#clip0_1_11)">
<path d="M441.4 0H58.6C26.3 0 0 26.3 0 58.6V441.5C0 473.7 26.3 500 58.6 500H441.5C473.8 500 500.1 473.7 500.1 441.4V58.6C500 26.4 473.6 0 441.4 0ZM250 155.5C302.2 155.5 344.5 197.8 344.5 250C344.5 302.2 302.2 344.5 250 344.5C197.8 344.5 155.5 302.2 155.5 250C155.5 197.8 197.8 155.5 250 155.5ZM443 423.3C443 434 434.2 442.8 423.5 442.8H75.5C64.8 442.8 56 434 56 423.3V211.2H102C98.8 223.6 97 236.7 97 250C97 334.6 165.6 403 250 403C334.4 403 403 334.6 403 250C403 236.5 401.2 223.6 398 211.2H443V423.3ZM443 134.9C443 145.6 434.2 154.4 423.5 154.4H366.5C355.8 154.4 347 145.6 347 134.9V77.9C347 67.2 355.8 58.4 366.5 58.4H423.5C434.2 58.4 443 67.2 443 77.9V134.9Z" fill="white"/>
</g>
<defs>
<clipPath id="clip0_1_11">
<rect width="500" height="500" fill="white"/>
</clipPath>
</defs>
</svg>
