<svg width="500" height="500" viewBox="0 0 500 500" fill="none" xmlns="http://www.w3.org/2000/svg">
<g clip-path="url(#clip0_1_6)">
<path d="M60.6 121.1C94.0132 121.1 121.1 94.0132 121.1 60.6C121.1 27.1868 94.0132 0.0999985 60.6 0.0999985C27.1867 0.0999985 0.0999756 27.1868 0.0999756 60.6C0.0999756 94.0132 27.1867 121.1 60.6 121.1Z" fill="white"/>
<path d="M112.5 164.6H8.59998V500H112.5V164.6Z" fill="white"/>
<path d="M368 157.5C318.5 159.1 287.8 194.7 276.6 210.4V164.6H175.9V500H179.7H276.6H280.6V360.1V325.8C280.6 325.1 280.6 324.2 280.6 323.4C280.6 242.4 338 248.8 338 248.8C338 248.8 395.4 242.3 395.4 323.4C395.4 324.3 395.4 325 395.4 325.8C395.4 351.7 395.4 360.3 395.4 360.1V500H396.3H407.2H500.1V298.9C501.7 139.4 368 157.5 368 157.5Z" fill="white"/>
</g>
<defs>
<clipPath id="clip0_1_6">
<rect width="500" height="500" fill="white"/>
</clipPath>
</defs>
</svg>
