<svg width="500" height="500" viewBox="0 0 500 500" fill="none" xmlns="http://www.w3.org/2000/svg">
<g clip-path="url(#clip0_1_2)">
<path d="M441.5 112.3C441.5 112.2 441.4 112 441.4 111.9C475.3 95.4 485.6 55.2 485.6 55.2C452.9 73.6 431.7 78.6 420.9 80C402.4 60.5 376.2 48.3 347.1 48.3C291 48.3 245.5 93.9 245.5 150C245.5 158 246.5 165.8 248.2 173.3C236.6 172.7 224.9 171.5 224.9 171.5V171.6C105.1 157.1 35.8 66.1 35.8 66.1C1.70001 140 43.2 185.3 65.8 203.3C34.4 199.2 21.3 189.7 21.3 189.7C26.5 271.3 86 288.7 113.3 292.5C89.6 297.8 57.1 293.2 57.1 293.2C77 349.2 122 361.6 148.5 363.9C91 422.1 0.100006 405.4 0.100006 405.4C137 494 278.5 428.4 278.5 428.4C436.3 349.4 448.5 213.3 447.6 166.4C448.4 161.4 448.9 156.3 448.9 151.1C473 130.2 500.1 95 500.1 95C484.4 104.7 460.5 109.7 441.5 112.3Z" fill="white"/>
</g>
<defs>
<clipPath id="clip0_1_2">
<rect width="500" height="500" fill="white"/>
</clipPath>
</defs>
</svg>
