<svg width="500" height="500" fill="none" xmlns="http://www.w3.org/2000/svg"><g clip-path="url(#clip0_1_11)"><path d="M441.4 0H58.6C26.3 0 0 26.3 0 58.6v382.9C0 473.7 26.3 500 58.6 500h382.9c32.3 0 58.6-26.3 58.6-58.6V58.6C500 26.4 473.6 0 441.4 0zM250 155.5c52.2 0 94.5 42.3 94.5 94.5s-42.3 94.5-94.5 94.5-94.5-42.3-94.5-94.5 42.3-94.5 94.5-94.5zm193 267.8c0 10.7-8.8 19.5-19.5 19.5h-348c-10.7 0-19.5-8.8-19.5-19.5V211.2h46c-3.2 12.4-5 25.5-5 38.8 0 84.6 68.6 153 153 153s153-68.4 153-153c0-13.5-1.8-26.4-5-38.8h45v212.1zm0-288.4c0 10.7-8.8 19.5-19.5 19.5h-57c-10.7 0-19.5-8.8-19.5-19.5v-57c0-10.7 8.8-19.5 19.5-19.5h57c10.7 0 19.5 8.8 19.5 19.5v57z" fill="#fff"/></g><defs><clipPath id="clip0_1_11"><path fill="#fff" d="M0 0h500v500H0z"/></clipPath></defs></svg>