<svg width="500" height="500" fill="none" xmlns="http://www.w3.org/2000/svg"><g clip-path="url(#clip0_1_6)" fill="#fff"><path d="M60.6 121.1c33.413 0 60.5-27.087 60.5-60.5S94.013.1 60.6.1.1 27.187.1 60.6s27.087 60.5 60.5 60.5zm51.9 43.5H8.6V500h103.9V164.6zm255.5-7.1c-49.5 1.6-80.2 37.2-91.4 52.9v-45.8H175.9V500h104.7V323.4c0-81 57.4-74.6 57.4-74.6s57.4-6.5 57.4 74.6V500h104.7V298.9C501.7 139.4 368 157.5 368 157.5z"/></g><defs><clipPath id="clip0_1_6"><path fill="#fff" d="M0 0h500v500H0z"/></clipPath></defs></svg>