<svg width="500" height="500" fill="none" xmlns="http://www.w3.org/2000/svg"><g clip-path="url(#clip0_1_2)"><path d="M441.5 112.3c0-.1-.1-.3-.1-.4 33.9-16.5 44.2-56.7 44.2-56.7-32.7 18.4-53.9 23.4-64.7 24.8-18.5-19.5-44.7-31.7-73.8-31.7-56.1 0-101.6 45.6-101.6 101.7 0 8 1 15.8 2.7 23.3-11.6-.6-23.3-1.8-23.3-1.8v.1C105.1 157.1 35.8 66.1 35.8 66.1c-34.1 73.9 7.4 119.2 30 137.2-31.4-4.1-44.5-13.6-44.5-13.6 5.2 81.6 64.7 99 92 102.8-23.7 5.3-56.2.7-56.2.7 19.9 56 64.9 68.4 91.4 70.7C91 422.1.1 405.4.1 405.4c136.9 88.6 278.4 23 278.4 23 157.8-79 170-215.1 169.1-262 .8-5 1.3-10.1 1.3-15.3C473 130.2 500.1 95 500.1 95c-15.7 9.7-39.6 14.7-58.6 17.3z" fill="#fff"/></g><defs><clipPath id="clip0_1_2"><path fill="#fff" d="M0 0h500v500H0z"/></clipPath></defs></svg>